<?xml version="1.0" standalone="no"?>
<!DOCTYPE svg PUBLIC "-//W3C//DTD SVG 20010904//EN"
 "http://www.w3.org/TR/2001/REC-SVG-20010904/DTD/svg10.dtd">
<svg version="1.0" xmlns="http://www.w3.org/2000/svg"
 width="130.000000pt" height="130.000000pt" viewBox="0 0 130.000000 130.000000"
 preserveAspectRatio="xMidYMid meet">
<metadata>
Created by potrace 1.14, written by Peter Selinger 2001-2017
</metadata>
<g transform="translate(0.000000,130.000000) scale(0.100000,-0.100000)"
fill="#000000" stroke="none">
<path d="M616 1210 c-20 -22 -36 -44 -36 -50 0 -5 17 -25 37 -45 l37 -36 33
35 c18 19 33 41 33 48 0 7 -15 30 -34 51 l-33 38 -37 -41z"/>
<path d="M494 1065 l-31 -34 36 -35 c20 -20 40 -36 44 -36 9 0 56 52 57 62 0
6 -67 78 -72 78 -2 0 -17 -16 -34 -35z"/>
<path d="M736 1061 l-39 -39 26 -26 c14 -14 27 -30 29 -37 2 -6 22 6 47 30
l43 41 -29 34 c-15 19 -30 35 -33 35 -3 1 -23 -17 -44 -38z"/>
<path d="M617 935 l-29 -36 31 -31 31 -32 30 29 c16 16 30 32 30 37 0 10 -51
68 -59 68 -3 0 -19 -16 -34 -35z"/>
<path d="M386 925 c-22 -34 -21 -38 21 -74 l37 -32 23 28 c30 37 29 43 -11 76
-43 33 -49 33 -70 2z"/>
<path d="M848 923 c-18 -15 -34 -28 -36 -29 -2 -1 8 -18 22 -38 l25 -37 40 36
40 37 -21 29 c-12 16 -25 29 -29 29 -4 0 -22 -12 -41 -27z"/>
<path d="M523 825 c-7 -8 -13 -18 -13 -24 0 -5 -6 -11 -12 -14 -9 -3 -1 -16
20 -36 18 -17 36 -31 40 -31 4 0 17 14 29 31 l21 31 -33 29 c-37 33 -36 33
-52 14z"/>
<path d="M726 811 l-28 -30 21 -30 c13 -17 26 -31 30 -31 4 0 20 14 36 30 l29
30 -20 27 c-28 37 -36 38 -68 4z"/>
<path d="M942 790 c-44 -32 -45 -36 -10 -83 13 -17 16 -16 53 16 l39 34 -20
32 -20 31 -42 -30z"/>
<path d="M295 781 c-15 -29 -14 -30 22 -60 40 -33 47 -33 68 9 15 28 14 30
-18 54 -43 33 -53 33 -72 -3z"/>
<path d="M617 701 l-26 -30 30 -33 29 -33 31 34 31 33 -28 29 c-15 16 -31 29
-34 29 -4 0 -18 -13 -33 -29z"/>
<path d="M421 684 l-21 -27 33 -28 c17 -16 35 -29 39 -29 4 0 14 13 23 30 14
28 14 30 -10 55 -32 31 -39 31 -64 -1z"/>
<path d="M822 687 c-25 -27 -27 -44 -8 -69 18 -24 22 -23 58 11 l31 29 -19 25
c-24 33 -35 33 -62 4z"/>
<path d="M235 671 c3 -5 1 -12 -5 -16 -20 -12 -9 -40 25 -64 39 -26 59 -20 62
21 2 16 -8 30 -30 46 -34 22 -63 30 -52 13z"/>
<path d="M1025 667 c-31 -19 -45 -40 -38 -62 10 -35 21 -38 57 -15 38 23 43
38 26 71 -12 22 -17 22 -45 6z"/>
<path d="M525 588 l-17 -30 32 -32 c22 -21 34 -27 37 -18 3 7 11 19 19 26 18
18 10 38 -25 64 l-28 20 -18 -30z"/>
<path d="M723 588 l-32 -33 22 -29 23 -29 27 25 c31 29 34 48 9 77 l-17 22
-32 -33z"/>
<path d="M347 563 c-14 -26 -14 -28 16 -50 36 -27 53 -29 61 -7 12 31 5 51
-21 65 -16 7 -31 15 -35 17 -4 2 -13 -9 -21 -25z"/>
<path d="M895 566 c-27 -21 -28 -26 -17 -50 14 -32 29 -33 66 -3 28 23 29 24
11 50 -21 33 -23 33 -60 3z"/>
<path d="M180 520 c0 -11 0 -23 1 -27 0 -5 16 -17 35 -28 30 -17 36 -18 44 -5
16 26 11 37 -26 59 -44 26 -54 26 -54 1z"/>
<path d="M1067 518 c-29 -17 -36 -26 -31 -42 9 -28 10 -29 31 -22 38 13 63 40
57 64 -8 27 -10 27 -57 0z"/>
<path d="M454 485 c-17 -26 -17 -27 15 -58 31 -31 33 -31 47 -13 21 29 17 48
-16 74 l-29 23 -17 -26z"/>
<path d="M626 488 c-20 -29 -20 -35 3 -64 19 -24 30 -21 60 18 10 14 8 21 -10
42 -28 32 -34 32 -53 4z"/>
<path d="M797 482 c-31 -32 -32 -40 -12 -65 13 -18 15 -18 44 4 35 26 39 49
13 72 -17 16 -20 15 -45 -11z"/>
<path d="M295 461 c-3 -6 -3 -11 2 -11 4 0 2 -4 -5 -9 -11 -6 -7 -13 15 -30
15 -11 34 -26 41 -31 9 -8 14 -5 21 12 11 30 5 42 -27 59 -15 7 -30 15 -34 17
-3 2 -9 -2 -13 -7z"/>
<path d="M975 458 c-44 -24 -54 -39 -43 -63 l11 -24 38 26 c38 25 40 35 15 70
-1 1 -10 -3 -21 -9z"/>
<path d="M559 405 c-1 -3 -2 -8 -3 -12 -1 -5 -5 -14 -10 -21 -5 -9 0 -22 15
-38 28 -30 33 -30 48 2 10 23 9 30 -10 50 -21 23 -37 30 -40 19z"/>
<path d="M703 387 c-18 -21 -19 -27 -6 -50 15 -29 32 -28 52 5 10 17 11 25 0
44 -15 30 -20 30 -46 1z"/>
<path d="M1115 397 c-11 -7 -23 -16 -26 -21 -4 -5 -12 -5 -18 -2 -7 5 -10 -1
-8 -16 2 -13 7 -22 10 -20 4 1 19 5 35 8 22 5 28 12 30 35 1 16 1 29 0 28 -2
0 -12 -6 -23 -12z"/>
<path d="M160 388 c0 -22 16 -39 38 -41 12 -1 22 -5 22 -10 0 -4 5 -5 10 -2
21 13 9 36 -25 51 -42 17 -45 17 -45 2z"/>
<path d="M396 378 c-4 -18 2 -29 27 -50 28 -24 34 -25 47 -12 19 18 6 42 -37
67 -30 17 -31 17 -37 -5z"/>
<path d="M876 388 c-39 -22 -53 -44 -44 -67 6 -16 12 -20 21 -14 64 49 63 47
52 70 -9 17 -15 19 -29 11z"/>
<path d="M270 333 c1 -22 66 -57 76 -42 7 12 -31 51 -40 42 -3 -4 -6 -1 -6 5
0 7 -7 12 -15 12 -8 0 -15 -8 -15 -17z"/>
<path d="M996 334 c-9 -8 -16 -12 -16 -8 0 3 -7 1 -15 -6 -10 -9 -12 -17 -6
-23 14 -14 71 14 71 35 0 22 -14 23 -34 2z"/>
<path d="M635 296 c-16 -24 -16 -28 -1 -51 20 -31 20 -31 39 -2 14 22 14 26
-3 52 l-18 27 -17 -26z"/>
<path d="M507 303 c-14 -13 -6 -40 18 -63 14 -13 28 -20 32 -17 3 4 3 7 -2 7
-4 0 -2 6 4 13 8 11 6 20 -12 40 -24 28 -29 31 -40 20z"/>
<path d="M758 283 c-23 -24 -25 -31 -14 -45 12 -16 15 -15 40 11 17 18 24 34
20 44 -9 23 -16 21 -46 -10z"/>
<path d="M376 281 c-3 -4 3 -16 14 -26 11 -10 20 -14 20 -10 0 5 6 1 13 -10
11 -14 16 -15 22 -5 6 9 -2 21 -21 37 -32 25 -40 28 -48 14z"/>
<path d="M888 272 c-16 -9 -28 -25 -28 -34 0 -17 3 -16 35 4 19 13 35 29 35
36 0 16 -9 15 -42 -6z"/>
<path d="M480 210 c0 -5 12 -21 27 -36 34 -34 44 -14 11 21 -24 26 -38 31 -38
15z"/>
<path d="M594 210 c-12 -12 -7 -50 6 -50 5 0 10 -8 13 -17 3 -13 6 -10 12 11
4 17 4 31 -2 35 -6 3 -12 12 -14 19 -3 9 -7 10 -15 2z"/>
<path d="M688 198 c-9 -14 -12 -33 -8 -48 l6 -25 12 23 c7 12 9 22 5 22 -4 0
-2 4 6 9 9 6 10 14 4 26 -9 15 -11 14 -25 -7z"/>
<path d="M787 197 c-26 -21 -36 -47 -19 -47 8 0 44 37 56 58 12 20 -9 14 -37
-11z"/>
</g>
</svg>
