<svg width="51" height="48" viewBox="0 0 51 48" fill="none" xmlns="http://www.w3.org/2000/svg">
<path fill-rule="evenodd" clip-rule="evenodd" d="M31.8403 8.75757C32.5265 9.22175 32.7064 10.1543 32.2422 10.8405L20.7422 27.8405C20.2781 28.5266 19.3455 28.7066 18.6594 28.2424C17.9732 27.7782 17.7932 26.8457 18.2574 26.1595L29.7574 9.15953C30.2216 8.47336 31.1541 8.2934 31.8403 8.75757Z" fill="#204EF4"/>
<path fill-rule="evenodd" clip-rule="evenodd" d="M36 24.5C36 26.9853 33.9853 29 31.5 29C29.0147 29 27 26.9853 27 24.5C27 22.0147 29.0147 20 31.5 20C33.9853 20 36 22.0147 36 24.5ZM31.5 27C32.8807 27 34 25.8807 34 24.5C34 23.1193 32.8807 22 31.5 22C30.1193 22 29 23.1193 29 24.5C29 25.8807 30.1193 27 31.5 27Z" fill="#204EF4"/>
<path fill-rule="evenodd" clip-rule="evenodd" d="M23 11.5C23 13.9853 20.9853 16 18.5 16C16.0147 16 14 13.9853 14 11.5C14 9.01472 16.0147 7 18.5 7C20.9853 7 23 9.01472 23 11.5ZM18.5 14C19.8807 14 21 12.8807 21 11.5C21 10.1193 19.8807 9 18.5 9C17.1193 9 16 10.1193 16 11.5C16 12.8807 17.1193 14 18.5 14Z" fill="#204EF4"/>
<path fill-rule="evenodd" clip-rule="evenodd" d="M8.50011 1.5C8.50011 0.671573 9.17168 0 10.0001 0H40.5001C41.3285 0 42.0001 0.671573 42.0001 1.5V28.5H49.0001C49.6572 28.5 50.2377 28.9276 50.4326 29.5551C50.6275 30.1826 50.3913 30.8638 49.8499 31.2361L25.8499 47.7361C25.3336 48.091 24.651 48.0877 24.1382 47.7276L0.638163 31.2276C0.102666 30.8516 -0.127333 30.1719 0.0698234 29.548C0.26698 28.9241 0.845798 28.5 1.50011 28.5H8.50011V1.5ZM11.5001 3V30C11.5001 30.8284 10.8285 31.5 10.0001 31.5H6.24684L25.0091 44.6735L44.1706 31.5H40.5001C39.6717 31.5 39.0001 30.8284 39.0001 30V3H11.5001Z" fill="#204EF4"/>
</svg>
