<svg width="56" height="68" viewBox="0 0 56 68" fill="none" xmlns="http://www.w3.org/2000/svg">
<path fill-rule="evenodd" clip-rule="evenodd" d="M11.2246 41.6866C11.95 42.0868 12.2136 42.9992 11.8134 43.7246L5.04074 56H13C13.5315 56 14.0234 56.2813 14.2929 56.7394L17.9812 63.0095L24.6976 51.2558C25.1087 50.5365 26.0249 50.2866 26.7442 50.6976C27.4635 51.1086 27.7134 52.0249 27.3024 52.7442L19.3024 66.7442C19.037 67.2086 18.5443 67.4966 18.0094 67.4999C17.4745 67.5033 16.9783 67.2216 16.7071 66.7605L12.1421 59H2.5C1.96931 59 1.47811 58.7196 1.20831 58.2626C0.93851 57.8056 0.930267 57.24 1.18663 56.7754L9.18663 42.2754C9.58683 41.55 10.4993 41.2864 11.2246 41.6866Z" fill="#204EF4"/>
<path fill-rule="evenodd" clip-rule="evenodd" d="M45.2754 41.6866C44.55 42.0868 44.2864 42.9992 44.6866 43.7246L51.4593 56H43.5C42.9685 56 42.4766 56.2813 42.2071 56.7394L38.5188 63.0095L31.8024 51.2558C31.3913 50.5365 30.4751 50.2866 29.7558 50.6976C29.0365 51.1086 28.7866 52.0249 29.1976 52.7442L37.1976 66.7442C37.463 67.2086 37.9557 67.4966 38.4906 67.4999C39.0255 67.5033 39.5217 67.2216 39.7929 66.7605L44.3579 59H54C54.5307 59 55.0219 58.7196 55.2917 58.2626C55.5615 57.8056 55.5697 57.24 55.3134 56.7754L47.3134 42.2754C46.9132 41.55 46.0007 41.2864 45.2754 41.6866Z" fill="#204EF4"/>
<path fill-rule="evenodd" clip-rule="evenodd" d="M25.4917 5.50112C23.4618 7.15242 20.8238 7.85927 18.2402 7.44416C16.7512 7.20492 15.2987 8.04352 14.7614 9.45265C13.8291 11.8977 11.8979 13.8288 9.4529 14.7611C8.04377 15.2985 7.20516 16.751 7.4444 18.24C7.85951 20.8236 7.15267 23.4616 5.50136 25.4915C4.54968 26.6614 4.54968 28.3386 5.50136 29.5085C7.15267 31.5384 7.85951 34.1764 7.4444 36.76C7.20516 38.249 8.04377 39.7015 9.4529 40.2388C11.8979 41.1711 13.8291 43.1023 14.7614 45.5473C15.2987 46.9564 16.7512 47.795 18.2402 47.5558C20.8238 47.1407 23.4618 47.8475 25.4917 49.4988C26.6616 50.4505 28.3388 50.4505 29.5087 49.4988C31.5386 47.8475 34.1766 47.1407 36.7602 47.5558C38.2492 47.795 39.7017 46.9564 40.239 45.5473C41.1714 43.1023 43.1025 41.1711 45.5475 40.2388C46.9567 39.7015 47.7953 38.249 47.556 36.76C47.1409 34.1764 47.8478 31.5384 49.4991 29.5085C50.4508 28.3386 50.4508 26.6614 49.4991 25.4915C47.8478 23.4616 47.1409 20.8236 47.556 18.24C47.7953 16.751 46.9567 15.2985 45.5475 14.7611C43.1025 13.8288 41.1714 11.8977 40.239 9.45265C39.7017 8.04352 38.2492 7.20492 36.7602 7.44416C34.1766 7.85927 31.5386 7.15242 29.5087 5.50112C28.3388 4.54943 26.6616 4.54943 25.4917 5.50112ZM31.4019 3.1739C29.1293 1.32517 25.8712 1.32517 23.5986 3.1739C22.2318 4.28572 20.4557 4.76164 18.7161 4.48215C15.8236 4.01741 13.002 5.64645 11.9583 8.3838C11.3305 10.03 10.0303 11.3303 8.38404 11.958C5.6467 13.0018 4.01765 15.8234 4.48239 18.7159C4.76189 20.4554 4.28597 22.2316 3.17414 23.5983C1.32542 25.8709 1.32542 29.129 3.17414 31.4016C4.28597 32.7684 4.76189 34.5445 4.48239 36.2841C4.01765 39.1766 5.6467 41.9982 8.38404 43.0419C10.0303 43.6697 11.3305 44.9699 11.9583 46.6161C13.002 49.3535 15.8236 50.9825 18.7161 50.5178C20.4557 50.2383 22.2318 50.7142 23.5986 51.826C25.8712 53.6748 29.1293 53.6748 31.4019 51.826C32.7686 50.7142 34.5448 50.2383 36.2843 50.5178C39.1768 50.9825 41.9984 49.3535 43.0422 46.6161C43.6699 44.9699 44.9701 43.6697 46.6164 43.0419C49.3537 41.9982 50.9828 39.1766 50.518 36.2841C50.2385 34.5445 50.7145 32.7684 51.8263 31.4016C53.675 29.129 53.675 25.8709 51.8263 23.5983C50.7145 22.2316 50.2385 20.4554 50.518 18.7159C50.9828 15.8234 49.3537 13.0018 46.6164 11.958C44.9701 11.3303 43.6699 10.03 43.0422 8.3838C41.9984 5.64645 39.1768 4.01741 36.2843 4.48215C34.5448 4.76164 32.7686 4.28572 31.4019 3.1739Z" fill="#204EF4"/>
<path fill-rule="evenodd" clip-rule="evenodd" d="M28 40C34.6274 40 40 34.6274 40 28C40 21.3726 34.6274 16 28 16C21.3726 16 16 21.3726 16 28C16 34.6274 21.3726 40 28 40ZM28 43C36.2843 43 43 36.2843 43 28C43 19.7157 36.2843 13 28 13C19.7157 13 13 19.7157 13 28C13 36.2843 19.7157 43 28 43Z" fill="#204EF4"/>
</svg>
