<svg width="47" height="40" viewBox="0 0 47 40" fill="none" xmlns="http://www.w3.org/2000/svg">
<path fill-rule="evenodd" clip-rule="evenodd" d="M0 17.9849C0 15.2234 2.23858 12.9849 5 12.9849H34C36.7614 12.9849 39 15.2234 39 17.9849V34.9849C39 37.7463 36.7614 39.9849 34 39.9849H5C2.23858 39.9849 0 37.7463 0 34.9849V17.9849ZM5 14.9849C3.34315 14.9849 2 16.328 2 17.9849V34.9849C2 36.6417 3.34315 37.9849 5 37.9849H34C35.6569 37.9849 37 36.6417 37 34.9849V17.9849C37 16.328 35.6569 14.9849 34 14.9849H5Z" fill="#204EF4"/>
<path fill-rule="evenodd" clip-rule="evenodd" d="M7.07038 5.86359C7.37831 3.11939 9.85255 1.1444 12.5967 1.45233L41.4159 4.68611C44.1601 4.99404 46.1351 7.46828 45.8271 10.2125L43.9315 27.1065C43.623 29.8559 41.1278 31.8232 38.3889 31.5159L38.6119 29.5284C40.2637 29.7137 41.7598 28.5247 41.944 26.8834L43.4617 13.3571L8.71974 9.10035L8.21523 13.5964C8.15365 14.1453 7.6588 14.5403 7.10996 14.4787C6.56112 14.4171 6.16612 13.9222 6.22771 13.3734L7.07038 5.86359ZM8.94277 7.11272L43.6848 11.3695L43.8396 9.98946C44.0244 8.34294 42.8394 6.8584 41.1929 6.67364L12.3737 3.43985C10.7272 3.2551 9.24266 4.44009 9.05791 6.08661L8.94277 7.11272Z" fill="#204EF4"/>
<path fill-rule="evenodd" clip-rule="evenodd" d="M6 19.9849C6 19.4326 6.44772 18.9849 7 18.9849H16C16.5523 18.9849 17 19.4326 17 19.9849V25.9849C17 26.5371 16.5523 26.9849 16 26.9849H7C6.44772 26.9849 6 26.5371 6 25.9849V19.9849ZM8 20.9849V24.9849H15V20.9849H8Z" fill="#204EF4"/>
<path fill-rule="evenodd" clip-rule="evenodd" d="M6 32.9849C6 32.4326 6.44772 31.9849 7 31.9849L16 31.9849C16.5523 31.9849 17 32.4326 17 32.9849C17 33.5371 16.5523 33.9849 16 33.9849H7C6.44772 33.9849 6 33.5371 6 32.9849Z" fill="#204EF4"/>
</svg>
