<svg width="56" height="50" viewBox="0 0 56 50" fill="none" xmlns="http://www.w3.org/2000/svg">
<path fill-rule="evenodd" clip-rule="evenodd" d="M45.3624 10.8743C44.5582 7.56727 42.4683 5.20354 41.1129 4.20962L42.887 1.79041C45.0274 3.35999 48.2698 7.19813 48.6559 12.5841C48.7858 14.3966 48.5894 16.3647 47.9303 18.4517C47.2857 20.4931 46.9215 22.022 46.7714 23.191C46.5106 25.2234 46.9138 25.9467 47.4062 26.4337C47.7247 26.7487 48.175 27.0495 48.8442 27.4193C49.1497 27.5881 49.4776 27.7591 49.8449 27.9506C49.875 27.9663 49.9054 27.9822 49.9362 27.9982C50.3346 28.206 50.7703 28.4342 51.2284 28.6888C54.1087 30.2889 55.5078 33.7879 55.4371 36.9708C55.365 40.2165 53.7452 43.6661 49.9743 44.923C46.3382 46.1351 43.3328 44.8925 41.4102 42.5853C39.5628 40.3684 38.7218 37.2069 39.0074 34.3508C39.1958 32.4665 38.667 31.4603 38.0769 30.9036C37.4359 30.2988 36.4834 30 35.5 30V27C37.0166 27 38.7891 27.4512 40.1356 28.7214C41.5329 30.0397 42.2541 32.0336 41.9925 34.6493C41.7782 36.7931 42.4372 39.1316 43.7148 40.6647C44.9171 42.1075 46.6618 42.8649 49.0256 42.077C51.2547 41.334 52.385 39.2836 52.4378 36.9042C52.4921 34.4622 51.3912 32.2111 49.7715 31.3113C49.351 31.0776 48.9461 30.8654 48.5487 30.658C48.5163 30.6412 48.484 30.6243 48.4516 30.6074C48.0922 30.4201 47.7323 30.2324 47.3933 30.0451C46.6624 29.6412 45.917 29.1802 45.2967 28.5668C44.2335 27.5154 43.7226 26.2104 43.6926 24.4906C41.9763 24.2671 40.4017 23.3978 39.3295 22.0654C37.8513 20.2282 37.414 17.6252 38.6293 14.8908C39.6465 12.602 41.4281 11.4879 43.1922 11.0739C43.9364 10.8993 44.6763 10.8478 45.3624 10.8743ZM45.6908 13.9061C45.1368 13.8427 44.4982 13.849 43.8776 13.9946C42.8918 14.2259 41.9535 14.798 41.3707 16.1092C40.586 17.8748 40.9324 19.2719 41.6669 20.1847C42.232 20.8871 43.0767 21.3676 44.0129 21.5064C44.2415 20.3653 44.5929 19.0579 45.0696 17.5483C45.478 16.2549 45.6657 15.0385 45.6908 13.9061Z" fill="#204EF4"/>
<path fill-rule="evenodd" clip-rule="evenodd" d="M29 3H12C9.79086 3 8 4.79086 8 7V47H33V7C33 4.79086 31.2091 3 29 3ZM12 0C8.13401 0 5 3.13401 5 7V50H36V7C36 3.13401 32.866 0 29 0H12Z" fill="#204EF4"/>
<path fill-rule="evenodd" clip-rule="evenodd" d="M41 50H0V47H41V50Z" fill="#204EF4"/>
<path fill-rule="evenodd" clip-rule="evenodd" d="M14 9V14H27V9H14ZM12 6C11.4477 6 11 6.44771 11 7V16C11 16.5523 11.4477 17 12 17H29C29.5523 17 30 16.5523 30 16V7C30 6.44772 29.5523 6 29 6H12Z" fill="#204EF4"/>
</svg>
